<svg xmlns="http://www.w3.org/2000/svg" version="1.1" width="32" height="32" viewBox="0 0 32 32">
  <title>
    next-dot-js
  </title>
  <path d="M23.75 30c-0.12 0.06-0.11 0.09 0.01 0.03 0.04-0.02 0.07-0.04 0.09-0.06l0 0c0-0.02 0-0.02-0.1 0.04zM23.99 29.88c-0.06 0.04-0.06 0.05 0.01 0.01 0.04-0.02 0.07-0.04 0.07-0.05 0-0.02-0.02-0.02-0.08 0.04zM24.14 29.78c-0.06 0.04-0.06 0.05 0.01 0.01 0.04-0.02 0.07-0.04 0.07-0.05 0-0.02-0.02-0.02-0.08 0.04zM24.3 29.69c-0.06 0.04-0.06 0.05 0.01 0.01 0.04-0.02 0.07-0.04 0.07-0.05 0-0.02-0.02-0.02-0.08 0.04zM24.52 29.55c-0.11 0.07-0.14 0.12-0.05 0.06 0.07-0.04 0.18-0.12 0.16-0.13-0.04 0.02-0.08 0.04-0.12 0.07l0 0zM14.95 0.01c-0.07 0.01-0.29 0.03-0.48 0.04-4.54 0.41-8.8 2.86-11.5 6.63-1.43 1.97-2.43 4.33-2.81 6.9l-0.01 0.09c-0.13 0.88-0.14 1.14-0.14 2.33s0.02 1.45 0.14 2.33c0.87 6.01 5.15 11.06 10.94 12.93 1.04 0.34 2.13 0.56 3.38 0.7 0.49 0.05 2.58 0.05 3.07 0 2.15-0.24 3.97-0.77 5.76-1.68 0.28-0.14 0.33-0.18 0.29-0.21-0.31-0.38-1.17-1.52-2.01-2.66l-0.59-0.83-2.56-3.46-3.2-4.74c-2.04-3.1-3.11-4.64-4.18-6.18l0.95 1.44c-0.01 0-0.02 2.11-0.03 4.68-0.01 4.51-0.01 4.69-0.07 4.8-0.06 0.13-0.15 0.22-0.27 0.28l0 0c-0.1 0.05-0.19 0.06-0.66 0.06h-0.54l-0.14-0.09c-0.09-0.06-0.16-0.13-0.21-0.22l0 0-0.06-0.14 0.01-6.27 0.01-6.27 0.1-0.12c0.07-0.08 0.14-0.14 0.23-0.19l0 0c0.13-0.06 0.18-0.07 0.72-0.07 0.64 0 0.74 0.03 0.91 0.21-0.11-0.29 1.16 1.61 2.42 3.51l1.44 2.3c2.08 3.15 4.92 7.45 6.31 9.56l2.53 3.84 0.13-0.08c1.25-0.84 2.33-1.79 3.27-2.86l0.02-0.02c1.95-2.22 3.29-5.01 3.76-8.09l0.01-0.09c0.13-0.88 0.14-1.14 0.14-2.33s-0.02-1.45-0.14-2.33c-0.87-6.01-5.14-11.06-10.94-12.93-0.96-0.32-2.09-0.56-3.26-0.69l-0.07-0.01c-0.3-0.03-2.37-0.06-2.63-0.04zM21.5 9.69c0.15 0.08 0.26 0.21 0.32 0.37l0 0c0.03 0.08 0.03 1.82 0.03 5.74l-0.01 5.62-0.99-1.52-0.99-1.52v-4.09c0-2.64 0.01-4.13 0.03-4.2 0.05-0.17 0.16-0.31 0.31-0.39l0 0c0.13-0.06 0.18-0.07 0.67-0.07 0.46 0 0.54 0.01 0.65 0.06z"/>
</svg>
